# xmcd
#
# Track frame offsets: 
#        150
#        15258
#        29858
#        42730
#        58958
#        72535
#        84448
#        98635
#        111798
#        126590
#        141673
#        153720
#
# Disc length: 2262 seconds
#
# Revision: 5
# Processed by: cddbd v1.5.2PL0 Copyright (c) Steve Scherf et al.
# Submitted via: ExactAudioCopy v1.3
#
DISCID=b908d40c
DTITLE=George Strait - The Vey Best of George Strait [CD1]
DYEAR=1991
DGENRE=Country
TTITLE0=All My Ex's Live in Texas
TTITLE1=You Look So Good in Love
TTITLE2=It Ain't Cool to Be Crazy About You
TTITLE3=Famous Lst Word of a Fool
TTITLE4=A Fire I Can't Put Out
TTITLE5=An Ace in the Hole
TTITLE6=Ocean Front Property
TTITLE7=Let's Fall to Pieces Together
TTITLE8=Does Fort Worth Ever Cross Your Mind
TTITLE9=You're Something Special to Me
TTITLE10=Fool Hearted Memory
TTITLE11=Baby Blue
EXTD=
EXTT0=
EXTT1=
EXTT2=
EXTT3=
EXTT4=
EXTT5=
EXTT6=
EXTT7=
EXTT8=
EXTT9=
EXTT10=
EXTT11=
PLAYORDER=
